<?xml version="1.0" encoding="UTF-8"?>
<svg width="26px" height="32px" viewBox="0 0 26 32" version="1.1" xmlns="http://www.w3.org/2000/svg" xmlns:xlink="http://www.w3.org/1999/xlink">
    <title>delete</title>
    <g id="Page-1" stroke="none" stroke-width="1" fill="none" fill-rule="evenodd">
        <g id="Edit_Book_Screen" transform="translate(-1267.000000, -133.000000)" fill="#FFFFFF">
            <g id="delete" transform="translate(1267.000000, 133.000000)">
                <path d="M25.9193323,7.15258787 L25.2164608,5.034668 C24.9488159,4.22802737 24.2005273,3.68603512 23.354847,3.68603512 L17.4474718,3.68603512 L17.4474718,1.75268556 C17.4474718,0.786376937 16.6659097,0 15.7048653,0 L10.2951347,0 C9.33433314,0 8.55252827,0.786376937 8.55252827,1.75268556 L8.55252827,3.68603512 L2.64539585,3.68603512 C1.79947271,3.68603512 1.05118414,4.22802737 0.783539188,5.034668 L0.0806676978,7.15258787 C-0.0793849551,7.63476562 0.00173430617,8.16870119 0.297309507,8.58105469 C0.592884696,8.99340819 1.07109962,9.23974612 1.57675912,9.23974612 L2.31144685,9.23974612 L3.92848855,29.3400879 C4.0487102,30.831543 5.30775856,32 6.79534945,32 L19.5327706,32 C21.0201186,32 22.2794099,30.831543 22.3993887,29.3398437 L24.0164303,9.23974612 L24.4232409,9.23974612 C24.9289003,9.23974612 25.4071153,8.99340819 25.7026905,8.58129881 C25.9982657,8.16894531 26.079385,7.63476562 25.9193323,7.15258787 L25.9193323,7.15258787 Z M10.4177851,1.875 L15.582215,1.875 L15.582215,3.68603512 L10.4177851,3.68603512 L10.4177851,1.875 Z M20.5402036,29.1887207 C20.4979439,29.7138672 20.0554311,30.125 19.5327706,30.125 L6.79534945,30.125 C6.27268894,30.125 5.83017615,29.7138672 5.78791646,29.1887207 L4.18277553,9.23974613 L22.1451017,9.23974613 L20.5402036,29.1887207 Z M1.97676929,7.36474612 L2.55310449,5.62792969 C2.56621961,5.58789062 2.60337901,5.56103512 2.64539585,5.56103512 L23.354847,5.56103512 C23.3968639,5.56103512 23.4337805,5.58789062 23.4471384,5.62792969 L24.0234736,7.36474612 L1.97676929,7.36474612 Z" id="Shape" fill-rule="nonzero"></path>
                <path d="M16.645121,28.9988297 C16.6571718,28.999766 16.6690454,29 16.6810962,29 C17.0406718,29 17.3412338,28.6278407 17.3600189,28.1480125 L17.9990675,11.9457384 C18.0185615,11.4499941 17.7300504,11.0270431 17.3548796,11.0012962 C16.9786455,10.9748472 16.6594756,11.3563691 16.6398044,11.8521134 L16.000933,28.0543875 C15.981439,28.5501319 16.269773,28.9730829 16.645121,28.9988297 Z" id="Path"></path>
                <path d="M8.66019306,28.1501115 C8.67974527,28.6292417 8.97547246,29 9.32898337,29 C9.34120353,29 9.3537728,28.9995319 9.36616747,28.9985956 C9.73573913,28.9716782 10.0190716,28.5480213 9.99899571,28.0522725 L9.33963233,11.8498535 C9.31955639,11.3541047 9.00357875,10.9742179 8.63383248,11.0013694 C8.26426082,11.0282868 7.9809284,11.4519437 8.00100429,11.9476925 L8.66019306,28.1501115 Z" id="Path"></path>
                <path d="M13,29 C13.5523437,29 14,28.5976438 14,28.1011937 L14,11.8988063 C14,11.4023563 13.5523437,11 13,11 C12.4476563,11 12,11.4023563 12,11.8988063 L12,28.1011937 C12,28.5976438 12.4476563,29 13,29 Z" id="Path"></path>
            </g>
        </g>
    </g>
</svg>