<?xml version="1.0" encoding="UTF-8"?>
<svg width="16px" height="24px" viewBox="0 0 16 24" version="1.1" xmlns="http://www.w3.org/2000/svg" xmlns:xlink="http://www.w3.org/1999/xlink">
    <title>india</title>
    <g id="Page-1" stroke="none" stroke-width="1" fill="none" fill-rule="evenodd">
        <g id="Book_Detail_Screen" transform="translate(-602.000000, -392.000000)" fill="#FFFFFF">
            <g id="Book_Desc" transform="translate(599.000000, 199.000000)">
                <g id="Price" transform="translate(3.000000, 183.000000)">
                    <g id="india" transform="translate(0.000000, 10.000000)">
                        <path d="M15.3091537,6.2730643 L11.7996546,6.2730643 C11.5993092,4.3214443 10.5561313,2.50922572 9.02936097,1.39401429 L15.3091537,1.39401429 C15.6891192,1.39401429 16,1.08036107 16,0.697007145 C16,0.313653215 15.6891192,0 15.3091537,0 L0.690846287,0 C0.310880829,0 0,0.313653215 0,0.697007145 C0,1.08036107 0.310880829,1.39401429 0.690846287,1.39401429 L4.87737478,1.39401429 C7.72366149,1.39401429 10.0725389,3.55473644 10.4110535,6.2730643 L0.690846287,6.2730643 C0.310880829,6.2730643 0,6.58671752 0,6.97007145 C0,7.35342538 0.310880829,7.66707859 0.690846287,7.66707859 L10.4110535,7.66707859 C10.0656304,10.4899575 7.68911917,12.6088592 4.87737478,12.6158293 L0.69775475,12.6158293 C0.310880829,12.6227994 0,12.9434227 0.00690846287,13.3337467 C0.00690846287,13.5219386 0.0898100173,13.7031605 0.221070812,13.8355918 L10.6735751,23.8097641 C10.9499136,24.0746268 11.3851468,24.0606866 11.6476684,23.7818838 C11.91019,23.4961108 11.8963731,23.0569963 11.6200345,22.7851636 L2.42487047,14.0098436 L4.87046632,14.0098436 C8.47668394,14.0098436 11.4542314,11.221815 11.7996546,7.66707859 L15.3091537,7.66707859 C15.6891192,7.66707859 16,7.35342538 16,6.97007145 C16,6.58671752 15.6891192,6.2730643 15.3091537,6.2730643 Z" id="Path"></path>
                    </g>
                </g>
            </g>
        </g>
    </g>
</svg>