<?xml version="1.0" encoding="UTF-8"?>
<svg width="38px" height="38px" viewBox="0 0 38 38" version="1.1" xmlns="http://www.w3.org/2000/svg" xmlns:xlink="http://www.w3.org/1999/xlink">
    <title>Shape</title>
    <g id="Page-1" stroke="none" stroke-width="1" fill="none" fill-rule="evenodd">
        <g id="Book_Detail_Screen" transform="translate(-1351.000000, -206.000000)" fill="#FFFFFF" fill-rule="nonzero">
            <g id="edit" transform="translate(1351.000000, 206.000000)">
                <path d="M28.5535117,0 L4.53439453,24.0191914 L0,38 L13.9808828,33.4656797 L38,9.44648828 L28.5535117,0 Z M34.8511953,9.44648828 L31.7023164,12.5953672 L25.4046328,6.29768359 L28.5534375,3.14880469 L34.8511953,9.44648828 Z M6.00897266,26.6898047 L11.3101953,31.9911016 L8.93252344,32.7622344 L5.23776563,29.0674766 L6.00897266,26.6898047 Z M7.08521875,24.6172461 L23.8302305,7.87216016 L26.1918711,10.2338008 L9.44678516,26.9788125 L7.08521875,24.6172461 Z M11.0211875,28.5532148 L27.7662734,11.8080547 L30.1279141,14.1696953 L13.3828281,30.9148555 L11.0211875,28.5532148 Z M4.46670703,31.4451484 L6.55492578,33.5333672 L3.46430859,34.5356914 L4.46670703,31.4451484 Z" id="Shape"></path>
            </g>
        </g>
    </g>
</svg>